<svg width="20" height="21" viewBox="0 0 20 21" fill="none" xmlns="http://www.w3.org/2000/svg">
<path d="M19.3775 3.08209C19.4943 3.19953 19.5599 3.35859 19.5599 3.52442C19.5599 3.69025 19.4943 3.84931 19.3775 3.96675L18.0738 5.27495L15.5738 2.76883L16.8775 1.46063C16.9947 1.34317 17.1537 1.27719 17.3194 1.27719C17.4851 1.27719 17.6441 1.34317 17.7613 1.46063L19.3775 3.08084V3.08209ZM17.19 6.15961L14.69 3.65349L6.17376 12.1918C6.10496 12.2608 6.05317 12.3449 6.02251 12.4374L5.01626 15.4623C4.99801 15.5175 4.99542 15.5766 5.00878 15.6332C5.02213 15.6897 5.05091 15.7414 5.0919 15.7825C5.13288 15.8236 5.18445 15.8524 5.24085 15.8658C5.29725 15.8792 5.35625 15.8766 5.41126 15.8583L8.42876 14.8496C8.52097 14.8192 8.60485 14.7677 8.67376 14.6992L17.19 6.16086V6.15961Z" fill="#939393"/>
<path fill-rule="evenodd" clip-rule="evenodd" d="M1.25 17.5675C1.25 18.066 1.44754 18.544 1.79917 18.8965C2.15081 19.249 2.62772 19.4471 3.125 19.4471H16.875C17.3723 19.4471 17.8492 19.249 18.2008 18.8965C18.5525 18.544 18.75 18.066 18.75 17.5675V10.0491C18.75 9.88294 18.6842 9.72358 18.5669 9.60608C18.4497 9.48858 18.2908 9.42257 18.125 9.42257C17.9592 9.42257 17.8003 9.48858 17.6831 9.60608C17.5658 9.72358 17.5 9.88294 17.5 10.0491V17.5675C17.5 17.7336 17.4342 17.893 17.3169 18.0105C17.1997 18.128 17.0408 18.194 16.875 18.194H3.125C2.95924 18.194 2.80027 18.128 2.68306 18.0105C2.56585 17.893 2.5 17.7336 2.5 17.5675V3.7838C2.5 3.61764 2.56585 3.45828 2.68306 3.34078C2.80027 3.22328 2.95924 3.15727 3.125 3.15727H11.25C11.4158 3.15727 11.5747 3.09126 11.6919 2.97377C11.8092 2.85627 11.875 2.69691 11.875 2.53074C11.875 2.36458 11.8092 2.20522 11.6919 2.08772C11.5747 1.97022 11.4158 1.90421 11.25 1.90421H3.125C2.62772 1.90421 2.15081 2.10224 1.79917 2.45473C1.44754 2.80722 1.25 3.2853 1.25 3.7838V17.5675Z" fill="#939393"/>
</svg>
