<svg width="20" height="21" viewBox="0 0 20 21" fill="none" xmlns="http://www.w3.org/2000/svg">
<path fill-rule="evenodd" clip-rule="evenodd" d="M2.00067 18.4292V8.98088H3.33389V18.4292C3.33389 18.6219 3.40412 18.8068 3.52914 18.9431C3.65415 19.0794 3.82371 19.156 4.0005 19.156H15.9995C16.1763 19.156 16.3458 19.0794 16.4709 18.9431C16.5959 18.8068 16.6661 18.6219 16.6661 18.4292V8.98088H17.9993V18.4292C17.9993 19.0074 17.7886 19.562 17.4136 19.9709C17.0385 20.3798 16.5299 20.6096 15.9995 20.6096H4.0005C3.47011 20.6096 2.96145 20.3798 2.58641 19.9709C2.21137 19.562 2.00067 19.0074 2.00067 18.4292ZM16.6661 2.43976V7.5273L13.9997 4.62013V2.43976C13.9997 2.247 14.0699 2.06214 14.1949 1.92584C14.3199 1.78954 14.4895 1.71297 14.6663 1.71297H15.9995C16.1763 1.71297 16.3458 1.78954 16.4709 1.92584C16.5959 2.06214 16.6661 2.247 16.6661 2.43976Z" fill="#939393"/>
<path fill-rule="evenodd" clip-rule="evenodd" d="M9.05741 0.986182C9.30743 0.713677 9.64648 0.560593 10 0.560593C10.3535 0.560593 10.6926 0.713677 10.9426 0.986182L19.8045 10.6467C19.9297 10.7832 20 10.9683 20 11.1613C20 11.3543 19.9297 11.5394 19.8045 11.6758C19.6793 11.8123 19.5096 11.889 19.3325 11.889C19.1555 11.889 18.9858 11.8123 18.8606 11.6758L10 2.01387L1.13941 11.6758C1.01424 11.8123 0.844472 11.889 0.667453 11.889C0.490433 11.889 0.320664 11.8123 0.195492 11.6758C0.0703207 11.5394 0 11.3543 0 11.1613C0 10.9683 0.0703207 10.7832 0.195492 10.6467L9.05741 0.986182Z" fill="#939393"/>
</svg>
