<svg width="51" height="52" viewBox="0 0 51 52" fill="none" xmlns="http://www.w3.org/2000/svg">
<g clip-path="url(#clip0_1_1065)">
<path d="M35.0625 19.2869C35.0625 21.8292 34.055 24.2674 32.2617 26.0651C30.4684 27.8628 28.0361 28.8728 25.5 28.8728C22.9639 28.8728 20.5316 27.8628 18.7383 26.0651C16.945 24.2674 15.9375 21.8292 15.9375 19.2869C15.9375 16.7445 16.945 14.3063 18.7383 12.5086C20.5316 10.7109 22.9639 9.70096 25.5 9.70096C28.0361 9.70096 30.4684 10.7109 32.2617 12.5086C34.055 14.3063 35.0625 16.7445 35.0625 19.2869Z" fill="#939393"/>
<path fill-rule="evenodd" clip-rule="evenodd" d="M0 25.6775C0 18.8979 2.6866 12.396 7.46878 7.60211C12.251 2.80823 18.737 0.115051 25.5 0.115051C32.263 0.115051 38.749 2.80823 43.5312 7.60211C48.3134 12.396 51 18.8979 51 25.6775C51 32.4571 48.3134 38.959 43.5312 43.7528C38.749 48.5467 32.263 51.2399 25.5 51.2399C18.737 51.2399 12.251 48.5467 7.46878 43.7528C2.6866 38.959 0 32.4571 0 25.6775ZM25.5 3.31035C21.2982 3.31058 17.1818 4.50017 13.6247 6.7422C10.0675 8.98423 7.21421 12.1876 5.39314 15.9835C3.57206 19.7795 2.85723 24.0138 3.33093 28.1991C3.80463 32.3843 5.44761 36.3505 8.07075 39.6409C10.3339 35.9855 15.3159 32.0681 25.5 32.0681C35.6841 32.0681 40.6629 35.9823 42.9293 39.6409C45.5524 36.3505 47.1954 32.3843 47.6691 28.1991C48.1428 24.0138 47.4279 19.7795 45.6069 15.9835C43.7858 12.1876 40.9325 8.98423 37.3753 6.7422C33.8182 4.50017 29.7018 3.31058 25.5 3.31035Z" fill="#939393"/>
</g>
<defs>
<clipPath id="clip0_1_1065">
<rect width="51" height="51.1248" fill="white" transform="translate(0 0.115051)"/>
</clipPath>
</defs>
</svg>
