<svg width="4" height="18" viewBox="0 0 4 18" fill="none" xmlns="http://www.w3.org/2000/svg">
<path d="M3.875 15.25C3.875 15.7473 3.67746 16.2242 3.32583 16.5758C2.97419 16.9275 2.49728 17.125 2 17.125C1.50272 17.125 1.02581 16.9275 0.674175 16.5758C0.322544 16.2242 0.125 15.7473 0.125 15.25C0.125 14.7527 0.322544 14.2758 0.674175 13.9242C1.02581 13.5725 1.50272 13.375 2 13.375C2.49728 13.375 2.97419 13.5725 3.32583 13.9242C3.67746 14.2758 3.875 14.7527 3.875 15.25ZM3.875 9C3.875 9.49728 3.67746 9.97419 3.32583 10.3258C2.97419 10.6775 2.49728 10.875 2 10.875C1.50272 10.875 1.02581 10.6775 0.674175 10.3258C0.322544 9.97419 0.125 9.49728 0.125 9C0.125 8.50272 0.322544 8.02581 0.674175 7.67417C1.02581 7.32254 1.50272 7.125 2 7.125C2.49728 7.125 2.97419 7.32254 3.32583 7.67417C3.67746 8.02581 3.875 8.50272 3.875 9ZM3.875 2.75C3.875 3.24728 3.67746 3.72419 3.32583 4.07583C2.97419 4.42746 2.49728 4.625 2 4.625C1.50272 4.625 1.02581 4.42746 0.674175 4.07583C0.322544 3.72419 0.125 3.24728 0.125 2.75C0.125 2.25272 0.322544 1.77581 0.674175 1.42417C1.02581 1.07254 1.50272 0.875 2 0.875C2.49728 0.875 2.97419 1.07254 3.32583 1.42417C3.67746 1.77581 3.875 2.25272 3.875 2.75Z" fill="#2B2B2B"/>
</svg>
