<svg width="18" height="18" viewBox="0 0 18 18" fill="none" xmlns="http://www.w3.org/2000/svg">
<path d="M1.50002 15.7075V6.26778C1.26391 6.11463 1.06613 5.91971 0.906687 5.68302C0.746687 5.44633 0.666687 5.16787 0.666687 4.84764V2.34152C0.666687 1.88207 0.83002 1.48861 1.15669 1.16114C1.4828 0.834231 1.87502 0.670776 2.33335 0.670776H15.6667C16.125 0.670776 16.5175 0.834231 16.8442 1.16114C17.1703 1.48861 17.3334 1.88207 17.3334 2.34152V4.84764C17.3334 5.16787 17.2534 5.44633 17.0934 5.68302C16.9339 5.91971 16.7361 6.11463 16.5 6.26778V15.7075C16.5 16.167 16.337 16.5604 16.0109 16.8879C15.6842 17.2148 15.2917 17.3782 14.8334 17.3782H3.16669C2.70835 17.3782 2.31585 17.2148 1.98919 16.8879C1.66308 16.5604 1.50002 16.167 1.50002 15.7075ZM3.16669 6.51839V15.7075H14.8334V6.51839H3.16669ZM15.6667 4.84764V2.34152H2.33335V4.84764H15.6667ZM6.50002 10.6953H11.5V9.02451H6.50002V10.6953ZM3.16669 15.7075V6.51839V15.7075Z" fill="#939393"/>
</svg>
