<svg width="20" height="21" viewBox="0 0 20 21" fill="none" xmlns="http://www.w3.org/2000/svg">
<g clip-path="url(#clip0_1_1084)">
<path fill-rule="evenodd" clip-rule="evenodd" d="M12.5 16.5433C12.5 16.7095 12.4342 16.8689 12.3169 16.9864C12.1997 17.1039 12.0408 17.1699 11.875 17.1699H1.875C1.70924 17.1699 1.55027 17.1039 1.43306 16.9864C1.31585 16.8689 1.25 16.7095 1.25 16.5433V5.26579C1.25 5.09962 1.31585 4.94026 1.43306 4.82277C1.55027 4.70527 1.70924 4.63926 1.875 4.63926H11.875C12.0408 4.63926 12.1997 4.70527 12.3169 4.82277C12.4342 4.94026 12.5 5.09962 12.5 5.26579V7.77191C12.5 7.93808 12.5658 8.09744 12.6831 8.21493C12.8003 8.33243 12.9592 8.39844 13.125 8.39844C13.2908 8.39844 13.4497 8.33243 13.5669 8.21493C13.6842 8.09744 13.75 7.93808 13.75 7.77191V5.26579C13.75 4.76729 13.5525 4.28921 13.2008 3.93672C12.8492 3.58423 12.3723 3.3862 11.875 3.3862H1.875C1.37772 3.3862 0.900805 3.58423 0.549175 3.93672C0.197544 4.28921 0 4.76729 0 5.26579L0 16.5433C0 17.0418 0.197544 17.5199 0.549175 17.8724C0.900805 18.2249 1.37772 18.4229 1.875 18.4229H11.875C12.3723 18.4229 12.8492 18.2249 13.2008 17.8724C13.5525 17.5199 13.75 17.0418 13.75 16.5433V14.0372C13.75 13.871 13.6842 13.7117 13.5669 13.5942C13.4497 13.4767 13.2908 13.4107 13.125 13.4107C12.9592 13.4107 12.8003 13.4767 12.6831 13.5942C12.5658 13.7117 12.5 13.871 12.5 14.0372V16.5433Z" fill="#939393"/>
<path fill-rule="evenodd" clip-rule="evenodd" d="M19.8175 11.3481C19.8757 11.2899 19.9219 11.2208 19.9534 11.1447C19.9849 11.0685 20.0011 10.9869 20.0011 10.9045C20.0011 10.8221 19.9849 10.7405 19.9534 10.6644C19.9219 10.5883 19.8757 10.5192 19.8175 10.461L16.0675 6.70177C15.9501 6.58413 15.791 6.51804 15.625 6.51804C15.459 6.51804 15.2999 6.58413 15.1825 6.70177C15.0651 6.81942 14.9992 6.97898 14.9992 7.14536C14.9992 7.31173 15.0651 7.4713 15.1825 7.58894L17.8663 10.278H6.875C6.70924 10.278 6.55027 10.344 6.43306 10.4615C6.31585 10.579 6.25 10.7384 6.25 10.9045C6.25 11.0707 6.31585 11.2301 6.43306 11.3476C6.55027 11.4651 6.70924 11.5311 6.875 11.5311H17.8663L15.1825 14.2201C15.0651 14.3378 14.9992 14.4973 14.9992 14.6637C14.9992 14.8301 15.0651 14.9897 15.1825 15.1073C15.2999 15.2249 15.459 15.291 15.625 15.291C15.791 15.291 15.9501 15.2249 16.0675 15.1073L19.8175 11.3481Z" fill="#939393"/>
</g>
<defs>
<clipPath id="clip0_1_1084">
<rect width="20" height="20.049" fill="white" transform="translate(0 0.880066)"/>
</clipPath>
</defs>
</svg>
