<svg width="20" height="21" viewBox="0 0 20 21" fill="none" xmlns="http://www.w3.org/2000/svg">
<g clip-path="url(#clip0_1_1090)">
<path fill-rule="evenodd" clip-rule="evenodd" d="M13.5675 8.44795C13.6257 8.50615 13.6719 8.57529 13.7034 8.6514C13.7349 8.72752 13.7511 8.80912 13.7511 8.89153C13.7511 8.97394 13.7349 9.05554 13.7034 9.13166C13.6719 9.20778 13.6257 9.27692 13.5675 9.33511L9.8175 13.0943C9.75944 13.1526 9.69047 13.1989 9.61454 13.2305C9.53861 13.2621 9.45721 13.2784 9.375 13.2784C9.29279 13.2784 9.21139 13.2621 9.13545 13.2305C9.05952 13.1989 8.99055 13.1526 8.9325 13.0943L7.0575 11.2147C6.99939 11.1565 6.95329 11.0873 6.92184 11.0112C6.89039 10.9351 6.87421 10.8535 6.87421 10.7711C6.87421 10.6887 6.89039 10.6072 6.92184 10.5311C6.95329 10.4549 6.99939 10.3858 7.0575 10.3275C7.11561 10.2693 7.18459 10.2231 7.26052 10.1916C7.33644 10.16 7.41782 10.1438 7.5 10.1438C7.58218 10.1438 7.66355 10.16 7.73948 10.1916C7.8154 10.2231 7.88439 10.2693 7.9425 10.3275L9.375 11.7648L12.6825 8.44795C12.7406 8.3896 12.8095 8.34331 12.8855 8.31172C12.9614 8.28014 13.0428 8.26388 13.125 8.26388C13.2072 8.26388 13.2886 8.28014 13.3645 8.31172C13.4405 8.34331 13.5094 8.3896 13.5675 8.44795Z" fill="#939393"/>
<path d="M3.75 0.746643H16.25C16.913 0.746643 17.5489 1.01068 18.0178 1.48067C18.4866 1.95066 18.75 2.5881 18.75 3.25276V18.2895C18.75 18.9541 18.4866 19.5916 18.0178 20.0616C17.5489 20.5316 16.913 20.7956 16.25 20.7956H3.75C3.08696 20.7956 2.45107 20.5316 1.98223 20.0616C1.51339 19.5916 1.25 18.9541 1.25 18.2895V17.0364H2.5V18.2895C2.5 18.6218 2.6317 18.9405 2.86612 19.1755C3.10054 19.4105 3.41848 19.5425 3.75 19.5425H16.25C16.5815 19.5425 16.8995 19.4105 17.1339 19.1755C17.3683 18.9405 17.5 18.6218 17.5 18.2895V3.25276C17.5 2.92043 17.3683 2.60171 17.1339 2.36672C16.8995 2.13172 16.5815 1.9997 16.25 1.9997H3.75C3.41848 1.9997 3.10054 2.13172 2.86612 2.36672C2.6317 2.60171 2.5 2.92043 2.5 3.25276V4.50582H1.25V3.25276C1.25 2.5881 1.51339 1.95066 1.98223 1.48067C2.45107 1.01068 3.08696 0.746643 3.75 0.746643V0.746643Z" fill="#939393"/>
<path d="M1.25 7.01194V6.38541C1.25 6.21925 1.31585 6.05989 1.43306 5.94239C1.55027 5.82489 1.70924 5.75888 1.875 5.75888C2.04076 5.75888 2.19973 5.82489 2.31694 5.94239C2.43415 6.05989 2.5 6.21925 2.5 6.38541V7.01194H3.125C3.29076 7.01194 3.44973 7.07795 3.56694 7.19545C3.68415 7.31295 3.75 7.47231 3.75 7.63847C3.75 7.80464 3.68415 7.964 3.56694 8.0815C3.44973 8.199 3.29076 8.265 3.125 8.265H0.625C0.45924 8.265 0.300269 8.199 0.183058 8.0815C0.065848 7.964 0 7.80464 0 7.63847C0 7.47231 0.065848 7.31295 0.183058 7.19545C0.300269 7.07795 0.45924 7.01194 0.625 7.01194H1.25ZM1.25 10.7711V10.1446C1.25 9.97843 1.31585 9.81907 1.43306 9.70157C1.55027 9.58407 1.70924 9.51806 1.875 9.51806C2.04076 9.51806 2.19973 9.58407 2.31694 9.70157C2.43415 9.81907 2.5 9.97843 2.5 10.1446V10.7711H3.125C3.29076 10.7711 3.44973 10.8371 3.56694 10.9546C3.68415 11.0721 3.75 11.2315 3.75 11.3977C3.75 11.5638 3.68415 11.7232 3.56694 11.8407C3.44973 11.9582 3.29076 12.0242 3.125 12.0242H0.625C0.45924 12.0242 0.300269 11.9582 0.183058 11.8407C0.065848 11.7232 0 11.5638 0 11.3977C0 11.2315 0.065848 11.0721 0.183058 10.9546C0.300269 10.8371 0.45924 10.7711 0.625 10.7711H1.25ZM1.25 14.5303V13.9038C1.25 13.7376 1.31585 13.5782 1.43306 13.4608C1.55027 13.3433 1.70924 13.2772 1.875 13.2772C2.04076 13.2772 2.19973 13.3433 2.31694 13.4608C2.43415 13.5782 2.5 13.7376 2.5 13.9038V14.5303H3.125C3.29076 14.5303 3.44973 14.5963 3.56694 14.7138C3.68415 14.8313 3.75 14.9907 3.75 15.1568C3.75 15.323 3.68415 15.4824 3.56694 15.5999C3.44973 15.7174 3.29076 15.7834 3.125 15.7834H0.625C0.45924 15.7834 0.300269 15.7174 0.183058 15.5999C0.065848 15.4824 0 15.323 0 15.1568C0 14.9907 0.065848 14.8313 0.183058 14.7138C0.300269 14.5963 0.45924 14.5303 0.625 14.5303H1.25Z" fill="#939393"/>
</g>
<defs>
<clipPath id="clip0_1_1090">
<rect width="20" height="20.049" fill="white" transform="translate(0 0.746643)"/>
</clipPath>
</defs>
</svg>
