<svg width="20" height="17" viewBox="0 0 20 17" fill="none" xmlns="http://www.w3.org/2000/svg">
<path d="M18.75 2.54363C17.6437 2.08 16.0575 1.58003 14.515 1.42465C12.8525 1.25674 11.4425 1.50359 10.625 2.36695V14.5793C11.7937 13.9152 13.275 13.8237 14.6412 13.9615C16.1162 14.1119 17.6037 14.5392 18.75 14.9777V2.54363ZM9.375 2.36695C8.5575 1.50359 7.1475 1.25674 5.485 1.42465C3.9425 1.58003 2.35625 2.08 1.25 2.54363V14.9777C2.3975 14.5392 3.88375 14.1106 5.35875 13.9628C6.72625 13.8237 8.20625 13.9139 9.375 14.5793V2.36695ZM10 1.23418C11.2312 0.172842 13.0162 0.0149569 14.6412 0.177855C16.5337 0.369573 18.4437 1.01991 19.6337 1.56249C19.7429 1.61227 19.8355 1.69249 19.9005 1.79359C19.9654 1.89469 20 2.01238 20 2.13263V15.9163C20 16.0211 19.9737 16.1243 19.9236 16.2163C19.8735 16.3083 19.8012 16.3862 19.7132 16.443C19.6253 16.4997 19.5246 16.5334 19.4203 16.541C19.316 16.5486 19.2114 16.5298 19.1162 16.4864C18.0137 15.9852 16.2375 15.3825 14.5162 15.2083C12.755 15.0304 11.2787 15.3173 10.4875 16.3072C10.4289 16.3804 10.3547 16.4395 10.2704 16.4801C10.186 16.5206 10.0936 16.5417 10 16.5417C9.90641 16.5417 9.81402 16.5206 9.72965 16.4801C9.64527 16.4395 9.57106 16.3804 9.5125 16.3072C8.72125 15.3173 7.245 15.0304 5.485 15.2083C3.7625 15.3825 1.985 15.9852 0.883749 16.4864C0.788559 16.5298 0.684027 16.5486 0.579729 16.541C0.475431 16.5334 0.374701 16.4997 0.286764 16.443C0.198828 16.3862 0.126497 16.3083 0.0763969 16.2163C0.0262966 16.1243 2.86102e-05 16.0211 0 15.9163V2.13263C3.24249e-05 2.01238 0.034584 1.89469 0.0995274 1.79359C0.164469 1.69249 0.257061 1.61227 0.366251 1.56249C1.55625 1.01991 3.46625 0.369573 5.35875 0.177855C6.98375 0.0137038 8.76875 0.172842 10 1.23418Z" fill="#939393"/>
</svg>
