<svg width="15" height="15" viewBox="0 0 15 15" fill="none" xmlns="http://www.w3.org/2000/svg">
<path d="M11.008 9.69773C11.9158 8.459 12.3224 6.92319 12.1464 5.39756C11.9704 3.87193 11.2249 2.46899 10.059 1.46942C8.8931 0.469845 7.39275 -0.0526401 5.85815 0.00649096C4.32354 0.065622 2.86785 0.702009 1.7823 1.78833C0.696757 2.87466 0.0614125 4.3308 0.00337956 5.86545C-0.0546534 7.4001 0.468905 8.90007 1.46931 10.0653C2.46971 11.2305 3.87319 11.975 5.39895 12.1498C6.9247 12.3247 8.46022 11.917 9.6983 11.0084H9.69736C9.72549 11.0459 9.75549 11.0815 9.78924 11.1162L13.3986 14.7255C13.5744 14.9015 13.8129 15.0003 14.0616 15.0004C14.3103 15.0005 14.5488 14.9018 14.7247 14.726C14.9006 14.5502 14.9995 14.3118 14.9996 14.0631C14.9997 13.8144 14.901 13.5758 14.7252 13.3999L11.1158 9.79054C11.0823 9.75662 11.0462 9.72528 11.008 9.6968V9.69773ZM11.2499 6.09398C11.2499 6.77111 11.1165 7.44161 10.8574 8.06719C10.5982 8.69278 10.2184 9.2612 9.73963 9.74C9.26083 10.2188 8.69241 10.5986 8.06683 10.8577C7.44124 11.1169 6.77074 11.2502 6.09362 11.2502C5.41649 11.2502 4.74599 11.1169 4.1204 10.8577C3.49482 10.5986 2.9264 10.2188 2.4476 9.74C1.96879 9.2612 1.58899 8.69278 1.32986 8.06719C1.07074 7.44161 0.937365 6.77111 0.937365 6.09398C0.937365 4.72646 1.48061 3.41495 2.4476 2.44796C3.41458 1.48098 4.72609 0.937732 6.09362 0.937732C7.46114 0.937732 8.77265 1.48098 9.73963 2.44796C10.7066 3.41495 11.2499 4.72646 11.2499 6.09398Z" fill="white"/>
</svg>
