<svg width="20" height="21" viewBox="0 0 20 21" fill="none" xmlns="http://www.w3.org/2000/svg">
<g clip-path="url(#clip0_1_1087)">
<path d="M13.75 7.73149C13.75 7.56533 13.8158 7.40597 13.9331 7.28847C14.0503 7.17097 14.2092 7.10496 14.375 7.10496H16.875C17.0408 7.10496 17.1997 7.17097 17.3169 7.28847C17.4342 7.40597 17.5 7.56533 17.5 7.73149V8.98455C17.5 9.15072 17.4342 9.31008 17.3169 9.42757C17.1997 9.54507 17.0408 9.61108 16.875 9.61108H14.375C14.2092 9.61108 14.0503 9.54507 13.9331 9.42757C13.8158 9.31008 13.75 9.15072 13.75 8.98455V7.73149Z" fill="#939393"/>
<path d="M2.5 3.34578C1.83696 3.34578 1.20107 3.60982 0.732233 4.07981C0.263392 4.5498 0 5.18724 0 5.8519L0 15.8764C0 16.541 0.263392 17.1785 0.732233 17.6485C1.20107 18.1185 1.83696 18.3825 2.5 18.3825H17.5C18.163 18.3825 18.7989 18.1185 19.2678 17.6485C19.7366 17.1785 20 16.541 20 15.8764V5.8519C20 5.18724 19.7366 4.5498 19.2678 4.07981C18.7989 3.60982 18.163 3.34578 17.5 3.34578H2.5ZM18.75 5.8519V12.1172H1.25V5.8519C1.25 5.51957 1.3817 5.20085 1.61612 4.96585C1.85054 4.73086 2.16848 4.59884 2.5 4.59884H17.5C17.8315 4.59884 18.1495 4.73086 18.3839 4.96585C18.6183 5.20085 18.75 5.51957 18.75 5.8519ZM17.5 17.1294H2.5C2.16848 17.1294 1.85054 16.9974 1.61612 16.7624C1.3817 16.5274 1.25 16.2087 1.25 15.8764V14.6233H18.75V15.8764C18.75 16.2087 18.6183 16.5274 18.3839 16.7624C18.1495 16.9974 17.8315 17.1294 17.5 17.1294Z" fill="#939393"/>
</g>
<defs>
<clipPath id="clip0_1_1087">
<rect width="20" height="20.049" fill="white" transform="translate(0 0.839661)"/>
</clipPath>
</defs>
</svg>
