<svg width="20" height="16" viewBox="0 0 20 16" fill="none" xmlns="http://www.w3.org/2000/svg">
<path d="M18.75 15.5428C18.75 15.5428 20 15.5428 20 14.2898C20 13.0367 18.75 9.27752 13.75 9.27752C8.75 9.27752 7.5 13.0367 7.5 14.2898C7.5 15.5428 8.75 15.5428 8.75 15.5428H18.75ZM8.7775 14.2898C8.76827 14.2885 8.75909 14.2868 8.75 14.2848C8.75125 13.9539 8.95875 12.9941 9.7 12.1295C10.39 11.3188 11.6025 10.5306 13.75 10.5306C15.8962 10.5306 17.1087 11.32 17.8 12.1295C18.5413 12.9941 18.7475 13.9552 18.75 14.2848L18.74 14.2873C18.7342 14.2882 18.7284 14.2891 18.7225 14.2898H8.7775ZM13.75 6.7714C14.413 6.7714 15.0489 6.50737 15.5178 6.03738C15.9866 5.56739 16.25 4.92995 16.25 4.26528C16.25 3.60062 15.9866 2.96318 15.5178 2.49319C15.0489 2.0232 14.413 1.75916 13.75 1.75916C13.087 1.75916 12.4511 2.0232 11.9822 2.49319C11.5134 2.96318 11.25 3.60062 11.25 4.26528C11.25 4.92995 11.5134 5.56739 11.9822 6.03738C12.4511 6.50737 13.087 6.7714 13.75 6.7714ZM17.5 4.26528C17.5 4.75895 17.403 5.24777 17.2145 5.70386C17.0261 6.15994 16.7499 6.57435 16.4017 6.92343C16.0534 7.2725 15.64 7.5494 15.1851 7.73831C14.7301 7.92723 14.2425 8.02446 13.75 8.02446C13.2575 8.02446 12.7699 7.92723 12.3149 7.73831C11.86 7.5494 11.4466 7.2725 11.0983 6.92343C10.7501 6.57435 10.4739 6.15994 10.2855 5.70386C10.097 5.24777 10 4.75895 10 4.26528C10 3.26829 10.3951 2.31212 11.0983 1.60714C11.8016 0.902159 12.7554 0.506104 13.75 0.506104C14.7446 0.506104 15.6984 0.902159 16.4017 1.60714C17.1049 2.31212 17.5 3.26829 17.5 4.26528ZM8.67 9.62838C8.16998 9.47054 7.65454 9.36678 7.1325 9.31887C6.83916 9.29091 6.54466 9.27711 6.25 9.27752C1.25 9.27752 0 13.0367 0 14.2898C0 15.1256 0.41625 15.5428 1.25 15.5428H6.52C6.33469 15.1516 6.24228 14.7227 6.25 14.2898C6.25 13.0242 6.72125 11.731 7.6125 10.6509C7.91625 10.2825 8.27 9.93789 8.67 9.62838ZM6.15 10.5306C5.41019 11.6449 5.01055 12.9513 5 14.2898H1.25C1.25 13.964 1.455 12.9991 2.2 12.1295C2.88125 11.3325 4.065 10.5556 6.15 10.5318V10.5306ZM1.875 4.89181C1.875 3.89482 2.27009 2.93865 2.97335 2.23367C3.67661 1.52869 4.63044 1.13263 5.625 1.13263C6.61956 1.13263 7.57339 1.52869 8.27665 2.23367C8.97991 2.93865 9.375 3.89482 9.375 4.89181C9.375 5.88881 8.97991 6.84497 8.27665 7.54995C7.57339 8.25494 6.61956 8.65099 5.625 8.65099C4.63044 8.65099 3.67661 8.25494 2.97335 7.54995C2.27009 6.84497 1.875 5.88881 1.875 4.89181ZM5.625 2.38569C4.96196 2.38569 4.32607 2.64973 3.85723 3.11972C3.38839 3.58971 3.125 4.22715 3.125 4.89181C3.125 5.55648 3.38839 6.19392 3.85723 6.66391C4.32607 7.1339 4.96196 7.39793 5.625 7.39793C6.28804 7.39793 6.92393 7.1339 7.39277 6.66391C7.86161 6.19392 8.125 5.55648 8.125 4.89181C8.125 4.22715 7.86161 3.58971 7.39277 3.11972C6.92393 2.64973 6.28804 2.38569 5.625 2.38569Z" fill="#939393"/>
</svg>
